<?xml version="1.0" standalone="no"?><!DOCTYPE svg PUBLIC "-//W3C//DTD SVG 1.1//EN" "http://www.w3.org/Graphics/SVG/1.1/DTD/svg11.dtd"><svg t="1768810424552" class="icon" viewBox="0 0 1024 1024" version="1.1" xmlns="http://www.w3.org/2000/svg" p-id="1701" width="256" height="256" xmlns:xlink="http://www.w3.org/1999/xlink"><path d="M82.107 520.011h62.344v31.172H82.107z m0 46.26h62.344v31.171H82.107z m88.217-46.26h62.344v31.172h-62.344z m0 46.26h62.344v31.171h-62.344z m88.279-46.26h62.344v31.172h-62.344z m0 46.26h62.344v31.171h-62.344z m88.279-46.26h62.344v31.172h-62.344z m0 46.26h62.344v31.171h-62.344z m88.279-46.26h62.344v31.172h-62.344z m0 46.26h62.344v31.171h-62.344z m88.217-46.26h62.344v31.172h-62.344z m0 46.26h62.344v31.171h-62.344z m88.279-46.26H674v31.172h-62.344z m0 46.26H674v31.171h-62.344z m88.279-46.26h62.344v31.172h-62.344z m0 46.26h62.344v31.171h-62.344z m88.279-46.26h62.344v31.172h-62.344z m0 46.26h62.344v31.171h-62.344z m88.28-46.26h62.343v31.172h-62.344z m0 46.26h62.343v31.171h-62.344zM52.056 451.681h155.86v49.875H52.057z m189.65 0h155.86v49.875h-155.86z m189.589 0h155.86v49.875h-155.86z m189.65 0h155.86v49.875h-155.86z m189.65 0h155.86v49.875h-155.86zM52.058 336.658h155.86v86.034H52.057z m189.65 0h155.86v86.034h-155.86z m189.589 0h155.86v86.034h-155.86z m189.65 0h155.86v86.034h-155.86z m189.65 0h155.86v86.034h-155.86z m-663.714-112.22h155.86v86.035h-155.86z m189.589 0h155.86v86.035H336.47z m189.65 0h155.86v86.035H526.12z m189.65 0h155.86v86.035h-155.86zM241.708 112.22h155.86v86.035h-155.86z m189.588 0h155.86v86.035h-155.86z m189.65 0h155.86v86.035h-155.86zM336.471 0h155.86v86.035H336.47z m189.65 0h155.86v86.035H526.12z" fill="#e16531" p-id="1702"></path><path d="M868.888 668.889h9.165v9.164h-9.165z" fill="#e16531" p-id="1703"></path><path d="M59.227 612.53V824.5a199.5 199.5 0 0 0 199.5 199.5h513.715a199.5 199.5 0 0 0 199.5-199.5V612.53z m305.485 97.256H289.09v-75.748h75.748z m94.327 0h-75.623v-75.748h75.747z m94.326 0h-75.623v-75.748h75.748z m94.327 0h-75.624v-75.748h76.06z m94.326 0h-75.623v-75.748h75.748z m181.733 135.91a51.06 51.06 0 0 1-100.873 0h-15.71l20.012-34.102 19.95 34.102h-14.713a41.77 41.77 0 0 0 36.222 33.417V784.1h-16.272a9.414 9.414 0 1 1 2.68-9.164h13.592V750.31a14.027 14.027 0 0 1 0-26.559v-8.291H863.9v-9.414h4.738v-9.414H863.9v-9.414h4.738v-9.165h-4.614v-9.164h4.614v-8.23a13.716 13.716 0 0 1 4.55-26.62 13.716 13.716 0 0 1 4.614 26.62v8.23h4.551v9.164h-4.55v9.165h4.675v9.414h-4.676v9.414h4.676v9.414h-4.676v8.042a14.027 14.027 0 0 1 0 26.559v24.625h13.467a9.227 9.227 0 1 1 0 9.165h-13.093v95.51a41.77 41.77 0 0 0 36.222-33.415h-14.775l20.012-34.103 19.95 34.103z" fill="#e16531" p-id="1704"></path><path d="M868.888 706.046h9.165v9.414h-9.165z m0-18.828h9.165v9.414h-9.165z" fill="#e16531" p-id="1705"></path></svg>